<?xml version="1.0" encoding="UTF-8" standalone="no"?>
<!-- Created with Inkscape (http://www.inkscape.org/) -->

<svg
   version="1.1"
   id="svg2"
   width="400"
   height="400"
   viewBox="0 0 400 400"
   xmlns="http://www.w3.org/2000/svg"
   xmlns:svg="http://www.w3.org/2000/svg">
  <defs
     id="defs6" />
  <g
     id="g8">
    <g
       id="g1549">
      <g
         id="g845">
        <path
           d="m 64.932232,236.86912 8.366067,-61.84963 90.407471,-17.15553 113.68743,1.32626 43.88793,61.28257 -15.77475,159.44128 v 0 L 366,400 l -0.13995,-6.75 c -0.077,-3.7125 -0.24005,-9 -0.36241,-11.75 -0.12235,-2.75 -0.3471,-19.85 -0.49945,-38 -0.30543,-36.38814 -1.14719,-53.80358 -3.49134,-72.23313 -1.52369,-11.97914 -5.96243,-35.57696 -7.01121,-37.27393 -0.29145,-0.47157 2.20149,-2.31321 5.53986,-4.09254 C 371.94702,223.55162 380,211.31652 380,199.56782 c 0,-11.22521 -6.31939,-24.261 -15.38266,-31.73171 -12.28099,-10.12303 -29.73027,-11.42085 -44.40994,-3.30307 l -4.29261,2.37379 -6.70739,-4.82363 c -7.99173,-5.74725 -15.02641,-9.60176 -25.29321,-13.85891 -12.92414,-5.35901 -23.89323,-7.81408 -52.41419,-11.73119 -11.56464,-1.5883 -38.08951,-1.60011 -52,-0.0232 -45.24369,5.12903 -75.46616,14.87923 -97.502354,31.45565 l -6.372742,4.7938 -6.485878,-3.03511 c -20.421909,-9.55656 -44.327963,-0.28101 -54.474505,21.13611 -2.786698,5.88211 -3.162846,7.69446 -3.150492,15.17961 0.0121,7.33343 0.394224,9.22524 2.784254,13.78435 3.557763,6.78663 9.631246,12.64649 16.922101,16.3269 C 34.399173,237.7159 37,239.19918 37,239.40743 c 0,0.20825 -0.693275,3.73096 -1.540611,7.82825 -3.446931,16.66759 -4.35072,29.66008 -3.913882,56.26432 0.234804,14.3 0.600617,27.125 0.812919,28.5 0.212301,1.375 0.688242,6.775 1.057645,12 0.369404,5.225 1.106753,14.225 1.638553,20 0.531801,5.775 1.25239,16.2375 1.601308,23.25 L 37.29033,400 65.578634,383.42137 62.539964,350.96132 Z"
           id="path1460" />
        <path
           style="fill:#fdfdfd"
           d="m 64.932232,236.86912 8.366067,-61.84963 90.407471,-17.15553 113.68743,1.32626 43.88793,61.28257 -15.77475,159.44128 v 0 L 366,400 l -0.13995,-6.75 c -0.077,-3.7125 -0.24005,-9 -0.36241,-11.75 -0.12235,-2.75 -0.3471,-19.85 -0.49945,-38 -0.30543,-36.38814 -1.14719,-53.80358 -3.49134,-72.23313 -1.52369,-11.97914 -5.96243,-35.57696 -7.01121,-37.27393 -0.29145,-0.47157 2.20149,-2.31321 5.53986,-4.09254 C 371.94702,223.55162 380,211.31652 380,199.56782 c 0,-11.22521 -6.31939,-24.261 -15.38266,-31.73171 -12.28099,-10.12303 -29.73027,-11.42085 -44.40994,-3.30307 l -4.29261,2.37379 -6.70739,-4.82363 c -7.99173,-5.74725 -15.02641,-9.60176 -25.29321,-13.85891 -12.92414,-5.35901 -23.89323,-7.81408 -52.41419,-11.73119 -11.56464,-1.5883 -38.08951,-1.60011 -52,-0.0232 -45.24369,5.12903 -75.46616,14.87923 -97.502354,31.45565 l -6.372742,4.7938 -6.485878,-3.03511 c -20.421909,-9.55656 -44.327963,-0.28101 -54.474505,21.13611 -2.786698,5.88211 -3.162846,7.69446 -3.150492,15.17961 0.0121,7.33343 0.394224,9.22524 2.784254,13.78435 3.557763,6.78663 9.631246,12.64649 16.922101,16.3269 C 34.399173,237.7159 37,239.19918 37,239.40743 c 0,0.20825 -0.693275,3.73096 -1.540611,7.82825 -3.446931,16.66759 -4.35072,29.66008 -3.913882,56.26432 0.234804,14.3 0.600617,27.125 0.812919,28.5 0.212301,1.375 0.688242,6.775 1.057645,12 0.369404,5.225 1.106753,14.225 1.638553,20 0.531801,5.775 1.25239,16.2375 1.601308,23.25 L 37.29033,400 65.578634,383.42137 62.539964,350.96132 Z m 116.267578,89.07183 c -1.3529,-0.53737 -3.16506,-2.86881 -4.40025,-5.66118 -2.16905,-4.90348 -3.52251,-17.00254 -2.10164,-18.7872 C 175.4652,300.52886 191.56208,295 193.6006,295 c 0.62831,0 0.69305,3.14876 0.17992,8.75 -0.44088,4.8125 -0.55068,10.3287 -0.24401,12.25823 0.48157,3.0299 0.10806,3.93519 -2.73946,6.63969 -3.86793,3.67366 -6.42769,4.55198 -9.59724,3.29303 z m 20.32673,-2.21441 c -3.29722,-3.29722 -3.52608,-3.93945 -3.51943,-9.87654 0.004,-3.4925 0.29595,-9.40853 0.64897,-13.14674 l 0.64186,-6.79673 3.10103,0.66826 c 1.70557,0.36755 5.46353,1.54591 8.35103,2.61859 l 5.25,1.95032 v 11.77316 c 0,13.26661 -0.65276,14.6657 -7.34944,15.75242 -3.1593,0.51268 -4.02703,0.15425 -7.12402,-2.94274 z M 119,262.96797 C 102.60144,260.41652 90.489204,251.5867 83.68498,237.22333 80.666606,230.8517 80.502362,229.89844 80.545145,219 80.603186,204.21512 82.62028,198.6171 91.190813,189.45517 107.92315,171.56826 138.47042,167.82621 159.19436,181.12472 177.41055,192.81402 183.56004,220.41609 172.31124,240 163.1275,255.9887 139.51794,266.16036 119,262.96797 Z M 110.03004,235.75 C 116.29842,232.58331 119,228.14089 119,221 c 0,-6.55774 -2.38807,-10.99711 -7.92168,-14.7262 -8.07285,-5.4403 -19.184044,-0.0223 -22.090563,10.77167 -2.5905,9.62038 5.099365,20.28086 15.050353,20.86434 0.84596,0.0496 3.54233,-0.92231 5.99193,-2.15981 z m -1.61908,-9.12145 c -1.1117,-2.89703 0.0208,-5.12855 2.60274,-5.12855 2.09589,0 2.4863,0.47107 2.4863,3 0,2.35154 -0.48731,3.0692 -2.25447,3.32014 -1.32218,0.18775 -2.49436,-0.30501 -2.83457,-1.19159 z m 132.93692,29.95164 c -20.4409,-4.95822 -34.65356,-21.93121 -34.52568,-41.23115 0.0868,-13.09986 4.65146,-23.68104 14.10642,-32.69955 C 231.14621,172.90356 243.93019,168 259.121,168 c 14.47347,0 25.31512,4.41343 34.21523,13.92837 8.57738,9.16991 12.18772,20.22958 11.47438,35.14979 -0.52819,11.04755 -4.23634,19.19709 -12.13321,26.66561 -12.60333,11.91971 -33.53186,17.15349 -51.32952,12.83642 z m -3.30217,-25.29059 c 3.97105,-2.30782 7.20726,-7.82288 7.66937,-13.06997 C 246.5042,209.25965 239.15435,200 231.25325,200 c -7.3286,0 -12.8426,4.53826 -15.23558,12.53951 -1.57663,5.27167 -0.0375,11.22934 4.12601,15.97136 4.76875,5.43129 11.53155,6.48101 17.90203,2.77873 z m -3.501,-9.14872 C 233.63711,219.28127 234.96609,217 237.5396,217 c 2.7521,0 4.22439,3.37452 2.42057,5.54799 -1.68958,2.03583 -4.71222,1.8086 -5.41546,-0.40711 z"
           id="path853" />
        <path
           style="fill:#f6d49f"
           d="m 37.078947,398.41667 c 0.04798,-1.16495 0.284941,-1.4019 0.604167,-0.60417 0.288871,0.72187 0.253344,1.58438 -0.07895,1.91667 -0.332292,0.33229 -0.568641,-0.25834 -0.52522,-1.3125 z m 328.000003,-3 c 0.048,-1.16495 0.28494,-1.4019 0.60416,-0.60417 0.28887,0.72187 0.25335,1.58438 -0.0789,1.91667 -0.33229,0.33229 -0.56864,-0.25834 -0.52522,-1.3125 z m 0.116,-5.91667 c 0.0204,-1.65 0.2445,-2.20394 0.49804,-1.23097 0.25354,0.97297 0.23687,2.32297 -0.0371,3 -0.27393,0.67703 -0.48137,-0.11903 -0.46099,-1.76903 z m -0.116,-7.08333 c 0.048,-1.16495 0.28494,-1.4019 0.60416,-0.60417 0.28887,0.72187 0.25335,1.58438 -0.0789,1.91667 -0.33229,0.33229 -0.56864,-0.25834 -0.52522,-1.3125 z m -330.000003,-14 c 0.04798,-1.16495 0.284941,-1.4019 0.604167,-0.60417 0.288871,0.72187 0.253344,1.58438 -0.07895,1.91667 -0.332292,0.33229 -0.568641,-0.25834 -0.52522,-1.3125 z M 34.194949,355.5 c 0.02038,-1.65 0.244498,-2.20394 0.498042,-1.23097 0.253543,0.97297 0.236869,2.32297 -0.03705,3 C 34.382014,357.94606 34.174569,357.15 34.194949,355.5 Z m -1.116002,-13.08333 c 0.04798,-1.16495 0.284941,-1.4019 0.604167,-0.60417 0.288871,0.72187 0.253344,1.58438 -0.07895,1.91667 -0.332292,0.33229 -0.568641,-0.25834 -0.52522,-1.3125 z m -1,-13 c 0.04798,-1.16495 0.284941,-1.4019 0.604167,-0.60417 0.288871,0.72187 0.253344,1.58438 -0.07895,1.91667 -0.332292,0.33229 -0.568641,-0.25834 -0.52522,-1.3125 z M 190,323.62244 c 0,-0.20765 0.7875,-0.99515 1.75,-1.75 1.58606,-1.24387 1.62143,-1.2085 0.37756,0.37756 C 190.82119,323.91575 190,324.44548 190,323.62244 Z M 216.30987,314.5 c 0.006,-3.3 0.1923,-4.52944 0.41486,-2.73209 0.22256,1.79735 0.21797,4.49735 -0.0102,6 -0.22818,1.50265 -0.41027,0.0321 -0.40466,-3.26791 z m 147.88508,0 c 0.0204,-1.65 0.2445,-2.20394 0.49804,-1.23097 0.25354,0.97297 0.23687,2.32297 -0.0371,3 -0.27393,0.67703 -0.48137,-0.11903 -0.46099,-1.76903 z M 193.27236,312 c 0,-2.475 0.19502,-3.4875 0.43337,-2.25 0.23836,1.2375 0.23836,3.2625 0,4.5 -0.23835,1.2375 -0.43337,0.225 -0.43337,-2.25 z M 31.157895,310 c 0,-1.375 0.226973,-1.9375 0.504386,-1.25 0.277412,0.6875 0.277412,1.8125 0,2.5 -0.277413,0.6875 -0.504386,0.125 -0.504386,-1.25 z m 166.921055,-8.58333 c 0.048,-1.16495 0.28494,-1.4019 0.60416,-0.60417 0.28887,0.72187 0.25335,1.58438 -0.0789,1.91667 -0.3323,0.33229 -0.56864,-0.25834 -0.52522,-1.3125 z M 214,294.83504 c -11.10077,-4.53124 -17.32734,-4.73075 -29.10343,-0.93251 -12.3937,3.99744 -17.09468,4.05321 -20.89995,0.24793 -5.68831,-5.6883 -4.83621,-15.54617 1.92851,-22.31089 5.10734,-5.10733 8.21439,-5.7414 12.10248,-2.4698 4.36404,3.67211 10.12916,4.94437 19.73806,4.35585 6.20991,-0.38034 9.62969,-1.1736 13.75,-3.18949 C 214.53205,269.06036 217,267.436 217,266.92645 c 0,-1.95412 2.93689,-0.75019 9.59317,3.93256 12.237,8.60883 14.33523,16.35919 6.37567,23.55017 -5.0284,4.54286 -8.68194,4.62489 -18.96884,0.42586 z M 363.15789,293 c 0,-1.375 0.22698,-1.9375 0.50439,-1.25 0.27741,0.6875 0.27741,1.8125 0,2.5 -0.27741,0.6875 -0.50439,0.125 -0.50439,-1.25 z M 31.078947,282.41667 c 0.04798,-1.16495 0.284941,-1.4019 0.604167,-0.60417 0.288871,0.72187 0.253344,1.58438 -0.07895,1.91667 -0.332292,0.33229 -0.568641,-0.25834 -0.52522,-1.3125 z m 331.000003,-2 c 0.048,-1.16495 0.28494,-1.4019 0.60416,-0.60417 0.28887,0.72187 0.25335,1.58438 -0.0789,1.91667 -0.33229,0.33229 -0.56864,-0.25834 -0.52522,-1.3125 z M 120.75,263.33772 c 0.6875,-0.27741 1.8125,-0.27741 2.5,0 0.6875,0.27741 0.125,0.50439 -1.25,0.50439 -1.375,0 -1.9375,-0.22698 -1.25,-0.50439 z m 10,0 c 0.6875,-0.27741 1.8125,-0.27741 2.5,0 0.6875,0.27741 0.125,0.50439 -1.25,0.50439 -1.375,0 -1.9375,-0.22698 -1.25,-0.50439 z m -97.671053,-3.92105 c 0.04798,-1.16495 0.284941,-1.4019 0.604167,-0.60417 0.288871,0.72187 0.253344,1.58438 -0.07895,1.91667 -0.332292,0.33229 -0.568641,-0.25834 -0.52522,-1.3125 z M 91.924314,250.25 89.5,247.5 l 2.75,2.42431 C 94.820289,252.1902 95.458588,253 94.674314,253 c -0.179127,0 -1.416627,-1.2375 -2.75,-2.75 z M 293,243.5 c 1.29175,-1.375 2.57363,-2.5 2.84863,-2.5 0.275,0 -0.55688,1.125 -1.84863,2.5 -1.29175,1.375 -2.57363,2.5 -2.84863,2.5 -0.275,0 0.55688,-1.125 1.84863,-2.5 z m -190.25,-6.16228 c 0.6875,-0.27741 1.8125,-0.27741 2.5,0 0.6875,0.27741 0.125,0.50439 -1.25,0.50439 -1.375,0 -1.9375,-0.22698 -1.25,-0.50439 z m 127.0625,-4.02083 c 0.72187,-0.28887 1.58437,-0.25335 1.91667,0.0789 0.33229,0.33229 -0.25834,0.56864 -1.3125,0.52522 -1.16495,-0.048 -1.4019,-0.28494 -0.60417,-0.60416 z M 19.872445,228.25 c -1.243871,-1.58606 -1.208501,-1.62143 0.377555,-0.37756 0.9625,0.75485 1.75,1.54235 1.75,1.75 0,0.82304 -0.821186,0.29331 -2.127555,-1.37244 z m 87.206505,-3.83333 c 0.048,-1.16495 0.28494,-1.4019 0.60416,-0.60417 0.28887,0.72187 0.25335,1.58437 -0.0789,1.91667 -0.3323,0.33229 -0.56864,-0.25834 -0.52522,-1.3125 z M 88.157895,221 c 0,-1.375 0.226973,-1.9375 0.504386,-1.25 0.277412,0.6875 0.277412,1.8125 0,2.5 -0.277413,0.6875 -0.504386,0.125 -0.504386,-1.25 z m 127.037055,-4.5 c 0.0204,-1.65 0.2445,-2.20394 0.49804,-1.23097 0.25354,0.97297 0.23687,2.32297 -0.0371,3 -0.27393,0.67703 -0.48137,-0.11903 -0.46099,-1.76903 z m 90.07741,-2.5 c 0,-2.475 0.19502,-3.4875 0.43337,-2.25 0.23836,1.2375 0.23836,3.2625 0,4.5 -0.23835,1.2375 -0.43337,0.225 -0.43337,-2.25 z m -99.11447,-1 c 0,-1.375 0.22698,-1.9375 0.50439,-1.25 0.27741,0.6875 0.27741,1.8125 0,2.5 -0.27741,0.6875 -0.50439,0.125 -0.50439,-1.25 z M 219,205.62244 c 0,-0.20765 0.7875,-0.99515 1.75,-1.75 1.58606,-1.24387 1.62143,-1.2085 0.37756,0.37756 C 219.82119,205.91575 219,206.44548 219,205.62244 Z M 91.5,188 c 0.995486,-1.1 2.034975,-2 2.309975,-2 0.275,0 -0.314489,0.9 -1.309975,2 -0.995486,1.1 -2.034975,2 -2.309975,2 -0.275,0 0.314489,-0.9 1.309975,-2 z M 217,185.68709 c 0,-0.1721 1.4625,-1.6346 3.25,-3.25 l 3.25,-2.93709 -2.93709,3.25 C 217.82513,185.77946 217,186.45965 217,185.68709 Z M 291.40499,179.75 289.5,177.5 l 2.25,1.90499 c 2.11444,1.79022 2.70524,2.59501 1.90499,2.59501 -0.18976,0 -1.20226,-1.0125 -2.25,-2.25 z m 75.46745,-9.5 c -1.24387,-1.58606 -1.2085,-1.62143 0.37756,-0.37756 0.9625,0.75485 1.75,1.54235 1.75,1.75 0,0.82304 -0.82119,0.29331 -2.12756,-1.37244 z M 256.75,167.29427 c 1.2375,-0.23836 3.2625,-0.23836 4.5,0 1.2375,0.23835 0.225,0.43337 -2.25,0.43337 -2.475,0 -3.4875,-0.19502 -2.25,-0.43337 z m 78.0625,-7.97738 c 0.72187,-0.28887 1.58438,-0.25335 1.91667,0.0789 0.33229,0.33229 -0.25834,0.56864 -1.3125,0.52522 -1.16495,-0.048 -1.4019,-0.28494 -0.60417,-0.60416 z m -155,-23 c 0.72187,-0.28887 1.58437,-0.25335 1.91667,0.0789 0.33229,0.33229 -0.25834,0.56864 -1.3125,0.52522 -1.16495,-0.048 -1.4019,-0.28494 -0.60417,-0.60416 z m 46.9375,0.0208 c 0.6875,-0.27741 1.8125,-0.27741 2.5,0 0.6875,0.27741 0.125,0.50439 -1.25,0.50439 -1.375,0 -1.9375,-0.22698 -1.25,-0.50439 z m -36.9375,-1.02083 c 0.72187,-0.28887 1.58437,-0.25335 1.91667,0.0789 0.33229,0.33229 -0.25834,0.56864 -1.3125,0.52522 -1.16495,-0.048 -1.4019,-0.28494 -0.60417,-0.60416 z m 18.94916,-0.0241 c 1.24391,-0.23919 3.04391,-0.23011 4,0.0202 0.95609,0.25029 -0.0617,0.446 -2.26166,0.4349 -2.2,-0.0111 -2.98225,-0.21589 -1.73834,-0.45508 z"
           id="path851" />
        <path
           style="fill:#64d7e5"
           d="M 40.6345,394.75 C 39.652334,384.62783 35.917282,333.3281 34.900836,316 31.008169,249.63886 46.609003,200.2294 79.786906,173.84115 102.39946,155.85612 128.94836,146.38572 173.5,140.41225 c 7.72516,-1.03579 18.57847,-1.57329 30.46657,-1.50883 56.12975,0.30433 92.62474,12.21681 117.74811,38.43466 13.58805,14.18 20.38807,26.12613 26.67162,46.85616 10.02358,33.06873 13.31163,66.97628 13.87233,143.05646 L 362.5,400.0014 201.82196,400.0007 41.143913,400 Z m 173.86326,-66.62423 c 4.93246,-2.85515 5.68187,-5.3622 5.14195,-17.20152 l -0.4823,-10.57574 5.17129,0.41664 c 4.52499,0.36457 5.68859,0.0396 9.31027,-2.6001 5.65095,-4.11876 8.17165,-10.51607 6.43177,-16.32326 -1.48206,-4.94668 -8.61958,-12.32868 -15.32074,-15.84551 -3.81226,-2.00071 -4.75,-3.00689 -4.75,-5.09668 0,-6.49275 -8.17068,-13.04772 -17.93831,-14.39112 -6.1759,-0.8494 -16.20624,1.60166 -20.7562,5.07208 -3.59236,2.74003 -6.30549,7.16775 -6.30549,10.29032 0,1.39588 -0.91606,2.17141 -3.1425,2.66042 -4.40519,0.96754 -11.43033,7.78332 -13.4363,13.03586 -3.50023,9.16523 0.84656,19.81017 8.92607,21.85921 L 171,300.35273 v 6.64213 c 0,19.42158 10.35702,28.65466 21.33281,19.01779 l 3.36948,-2.95845 2.39886,2.6004 c 4.97138,5.38906 10.03689,6.1525 16.39661,2.47117 z m -16.41881,-29.7091 c 0.048,-1.16495 0.28494,-1.4019 0.60416,-0.60417 0.28887,0.72187 0.25335,1.58438 -0.0789,1.91667 -0.3323,0.33229 -0.56864,-0.25834 -0.52522,-1.3125 z m -58.60764,-32.92811 c 16.68083,-3.53345 30.52777,-13.63767 37.20551,-27.14916 3.13971,-6.35277 3.66076,-8.4656 4.08401,-16.5606 0.86553,-16.55368 -3.29758,-28.21714 -13.56857,-38.014 -9.91641,-9.45866 -21.34085,-13.73524 -36.69226,-13.73524 -19.53432,0 -37.282797,8.83093 -46.542684,23.15777 -5.35497,8.28519 -7.287821,16.37548 -6.802001,28.47099 0.356104,8.86596 0.769828,10.65162 4.08557,17.63364 10.011638,21.08166 33.177515,31.50348 58.230425,26.1966 z M 79.252183,218.5 c 0.0111,-2.2 0.215885,-2.98225 0.455078,-1.73834 0.239193,1.24391 0.230112,3.04391 -0.02018,4 C 79.436788,221.71775 79.241084,220.7 79.252183,218.5 Z m 191.175577,40.8865 c 14.3675,-3.48101 28.52164,-14.10768 33.81342,-25.3865 8.44824,-18.00647 4.29276,-41.59649 -9.812,-55.70125 C 278.46634,162.3359 251.15929,159.82912 229,172.29235 c -17.89081,10.06248 -28.82458,31.83968 -25.11126,50.01507 1.81229,8.87052 6.62825,17.99218 12.71066,24.07459 13.30403,13.30403 32.97612,18.05665 53.82836,13.00449 z m -18.16401,-1.10408 c 1.52006,-0.22986 3.77006,-0.22371 5,0.0136 1.22994,0.23736 -0.0138,0.42542 -2.76375,0.41792 -2.75,-0.008 -3.75631,-0.20172 -2.23625,-0.43157 z M 245.19495,216.5 c 0.0204,-1.65 0.2445,-2.20394 0.49804,-1.23097 0.25354,0.97297 0.23687,2.32297 -0.0371,3 -0.27393,0.67703 -0.48137,-0.11903 -0.46099,-1.76903 z m -5.32251,-12.25 c -1.24387,-1.58606 -1.2085,-1.62143 0.37756,-0.37756 0.9625,0.75485 1.75,1.54235 1.75,1.75 0,0.82304 -0.82119,0.29331 -2.12756,-1.37244 z m 125.20651,194.16667 c 0.048,-1.16495 0.28494,-1.4019 0.60416,-0.60417 0.28887,0.72187 0.25335,1.58438 -0.0789,1.91667 -0.33229,0.33229 -0.56864,-0.25834 -0.52522,-1.3125 z m -330.000003,-33 c 0.04798,-1.16495 0.284941,-1.4019 0.604167,-0.60417 0.288871,0.72187 0.253344,1.58438 -0.07895,1.91667 -0.332292,0.33229 -0.568641,-0.25834 -0.52522,-1.3125 z M 364.15789,323 c 0,-1.375 0.22698,-1.9375 0.50439,-1.25 0.27741,0.6875 0.27741,1.8125 0,2.5 -0.27741,0.6875 -0.50439,0.125 -0.50439,-1.25 z M 31.078947,306.41667 c 0.04798,-1.16495 0.284941,-1.4019 0.604167,-0.60417 0.288871,0.72187 0.253344,1.58438 -0.07895,1.91667 -0.332292,0.33229 -0.568641,-0.25834 -0.52522,-1.3125 z M 31.232003,300 c 0,-1.925 0.205795,-2.7125 0.457323,-1.75 0.251527,0.9625 0.251527,2.5375 0,3.5 -0.251528,0.9625 -0.457323,0.175 -0.457323,-1.75 z m 0,-8 c 0,-1.925 0.205795,-2.7125 0.457323,-1.75 0.251527,0.9625 0.251527,2.5375 0,3.5 -0.251528,0.9625 -0.457323,0.175 -0.457323,-1.75 z m -0.153056,-6.58333 c 0.04798,-1.16495 0.284941,-1.4019 0.604167,-0.60417 0.288871,0.72187 0.253344,1.58438 -0.07895,1.91667 -0.332292,0.33229 -0.568641,-0.25834 -0.52522,-1.3125 z m 331.000003,-2 c 0.048,-1.16495 0.28494,-1.4019 0.60416,-0.60417 0.28887,0.72187 0.25335,1.58438 -0.0789,1.91667 -0.33229,0.33229 -0.56864,-0.25834 -0.52522,-1.3125 z m -330.000003,-13 c 0.04798,-1.16495 0.284941,-1.4019 0.604167,-0.60417 0.288871,0.72187 0.253344,1.58438 -0.07895,1.91667 -0.332292,0.33229 -0.568641,-0.25834 -0.52522,-1.3125 z M 31,232.41683 C 11.141517,221.12361 8.8119487,197.55647 25.868145,180.50028 37.392994,168.97543 53.358439,166.19914 68.808169,173.03329 l 4.49013,1.9862 -5.942224,6.24026 c -3.268224,3.43214 -6.946356,7.67519 -8.173627,9.429 -2.196859,3.13938 -2.28471,3.16647 -5.674807,1.75 C 51.613769,191.64744 48.204784,191 45.932119,191 c -7.833903,0 -13.983111,9.63425 -10.9,17.07754 1.003971,2.4238 4.31436,5.6395 8.829064,8.57653 0.198651,0.12923 -0.926349,4.30896 -2.5,9.28828 -1.935996,6.12585 -3.34622,9.05012 -4.361183,9.04344 -0.825,-0.005 -3.525,-1.16147 -6,-2.56896 z m 318.28427,-15.53671 c -4.12845,-12.08951 -4.13389,-12.12516 -2.17284,-14.2301 1.08128,-1.16062 2.23257,-3.17244 2.55841,-4.47071 0.92628,-3.69056 -1.39845,-9.77316 -4.84296,-12.67152 -2.60285,-2.19016 -3.97564,-2.5951 -8.06236,-2.37819 l -4.92537,0.26142 -6.40633,-7.08918 -6.40632,-7.08918 2.28813,-1.49924 c 6.4481,-4.22496 17.61562,-6.28248 25.39022,-4.67795 11.69077,2.41276 20.19142,9.03596 25.68109,20.00916 8.24558,16.48196 4.47722,31.84977 -10.22664,41.70537 -3.48738,2.3375 -6.87968,4.25 -7.53845,4.25 -0.65876,0 -3.06022,-5.45394 -5.33658,-12.11988 z"
           id="path849" />
        <path
           id="path847"
           style="fill:#0b0e0f"
           d="m 199.49219,133.39453 c -9.52787,0.2086 -19.00728,1.33542 -28.44727,2.57422 -12.38909,1.73132 -24.75789,3.76021 -36.90179,6.79475 -14.66433,3.79916 -28.98355,9.19397 -42.152896,16.72673 -4.803534,2.73647 -9.352464,5.89134 -13.733144,9.25815 -0.932702,0.69715 -1.865404,1.39431 -2.798106,2.09146 -4.499159,-2.03333 -8.99889,-4.17208 -13.837909,-5.27731 -6.608201,-1.64404 -13.646357,-1.64145 -20.199214,0.26825 -13.996196,3.95298 -25.739504,15.20213 -30.163989,29.07149 -2.1315038,6.63844 -2.3385572,13.93413 -0.218452,20.60373 1.692555,5.83614 4.907861,11.26905 9.484956,15.30205 3.973409,3.631 8.782333,6.14189 13.58001,8.4939 0.37894,0.35458 1.491252,0.35324 1.195196,1.03542 -1.220168,5.85128 -2.364714,11.72043 -3.180506,17.64354 -0.802557,5.40797 -1.457226,10.8432 -1.661409,16.31052 -0.593607,13.03638 -0.717277,26.09324 -0.526793,39.14121 0.07757,5.47107 0.336288,10.93846 0.852255,16.38643 1.69859,21.28464 3.282214,42.57854 4.937574,63.86648 0.294851,2.33614 0.330192,4.82187 1.470703,6.9414 0.780131,1.36592 2.692238,1.79241 3.99483,0.92737 1.468096,-1.07447 1.355162,-3.09707 1.375505,-4.72541 -0.114969,-6.05839 -0.682561,-12.09731 -1.113207,-18.1391 -1.575429,-20.46837 -3.321209,-40.8978 -4.417284,-61.39098 -0.243686,-4.83208 -0.482106,-9.83497 -0.607524,-14.6502 -0.194255,-6.75443 -0.224323,-13.52085 0.23643,-20.26582 0.504118,-8.05245 1.305324,-16.25801 2.519098,-24.30112 0.622889,-4.09395 1.31645,-8.03259 2.174019,-12.09805 1.997809,-9.51876 4.715889,-18.90401 8.431883,-27.89966 0.262231,-0.62243 0.650098,-1.53565 0.964615,-2.26903 5.511455,-12.68964 13.276303,-24.46279 23.220757,-34.11803 11.581204,-11.33041 25.813561,-19.66392 40.817112,-25.60669 8.92372,-3.50299 18.16541,-6.1409 27.49947,-8.29726 1.87198,-0.4264 3.94891,-0.87689 5.90625,-1.2793 4.82116,-0.98263 9.70614,-1.83688 14.51137,-2.55435 10.61161,-1.58047 21.31211,-2.57421 32.0355,-2.93002 6.39339,-0.20645 12.99429,-0.13759 19.46485,0.0684 2.96946,0.0988 6.08405,0.23954 9.0642,0.4229 8.02766,0.48941 16.00618,1.28846 23.97866,2.54256 3.16658,0.4969 6.4172,1.08755 9.61144,1.75133 5.81644,1.21682 11.76301,2.76271 17.47629,4.65226 9.33066,3.07556 18.57216,7.25177 26.92577,12.61845 8.3723,5.32712 15.89201,11.93324 22.46049,19.3603 6.3515,7.02147 11.80503,14.89485 15.7603,23.5131 0.70047,1.50034 1.34817,2.98209 1.94923,4.44828 1.76335,4.27117 3.27535,8.66183 4.62423,13.02004 1.40358,4.53974 2.70989,9.2561 3.83298,13.7821 3.12923,12.65596 5.21016,25.5519 6.62891,38.50586 0.15292,1.54282 0.34931,3.28685 0.49703,4.85497 2.18403,22.81287 2.71879,45.67638 2.92129,68.57042 0.12629,13.77855 -0.0841,27.56289 0.36762,41.33661 0.18511,3.0183 0.17019,6.10022 0.9875,9.03293 0.35404,1.32409 1.46589,2.53855 2.91707,2.51172 0.51005,0.0411 1.08851,-0.30386 1.44404,-0.64872 0.91786,-1.23022 0.67336,-2.87583 0.8393,-4.31866 0.38387,-10.04158 0.34737,-20.09436 0.36353,-30.142 -0.0431,-18.21901 -0.19421,-36.44139 -0.77826,-54.65168 -0.73795,-21.18065 -2.65577,-42.35949 -6.60233,-63.19687 -1.00825,-5.18253 -2.08776,-10.35202 -2.99585,-15.55379 3.85099,-1.95855 7.80504,-3.80794 11.20238,-6.52045 6.42499,-4.89158 11.21562,-11.99041 12.95726,-19.90825 2.01475,-8.81327 0.331,-18.16408 -3.57648,-26.22009 -5.89926,-12.09168 -18.02499,-20.81546 -31.27848,-22.902 -3.50749,-0.58357 -7.09842,-0.56244 -10.6013,0.0417 -5.99849,0.99628 -11.8995,2.86851 -17.16714,5.9444 -0.63187,0.34381 -1.26374,0.68763 -1.89562,1.03145 -7.29813,-5.54518 -15.08529,-10.46597 -23.35653,-14.42877 -16.18127,-7.84332 -33.8574,-12.1727 -51.64509,-14.36578 -8.66393,-1.11723 -17.42749,-1.60534 -26.12109,-2.03441 -4.51595,-0.20881 -9.02375,-0.59067 -13.54113,-0.75069 -0.65419,-0.0175 -1.30878,-5.6e-4 -1.96311,-0.002 z m 57.82422,28.93555 c -8.34483,0.25586 -16.65734,2.13987 -24.25977,5.59961 -13.82738,6.40963 -25.04513,18.56216 -29.73747,33.12446 -2.51983,7.76959 -2.95138,16.26433 -0.80691,24.17447 2.57711,10.28894 8.55876,19.70097 16.86703,26.30997 9.89194,7.9706 22.68893,11.8542 35.30743,11.8539 13.46497,0.0205 27.04468,-4.21223 37.73209,-12.48818 7.73797,-5.99524 13.89084,-14.26987 16.53211,-23.76498 2.67846,-9.30573 1.96252,-19.29039 -0.63941,-28.5279 -2.7565,-10.061 -8.74177,-19.25054 -17.03362,-25.61587 -9.58001,-7.47862 -21.88229,-11.01861 -33.96148,-10.66548 z m 83.41601,2.19726 c 7.38029,-0.0975 14.77124,2.47329 20.4189,7.24195 5.23061,4.34328 8.9974,10.25612 11.36821,16.58618 0.27147,0.74955 0.62059,1.76897 0.86722,2.64582 1.83968,6.19069 1.81815,13.06694 -0.84778,19.02061 -2.58352,5.93502 -7.42852,10.59001 -12.85973,13.96332 -1.42757,0.91231 -2.87178,1.80314 -4.37455,2.58705 -2.60268,-5.36148 -4.36617,-11.07525 -6.27115,-16.70859 -0.45956,-1.62972 -1.18034,-3.25603 -1.16831,-4.96915 0.79611,-1.07207 1.78648,-2.02 2.41668,-3.22098 1.19885,-1.88576 1.81003,-4.13979 1.54426,-6.37277 -0.44056,-4.02463 -2.24628,-7.93862 -5.12892,-10.79643 -1.88208,-1.79745 -4.24325,-3.28621 -6.91622,-3.3778 -2.36589,-0.14142 -4.73188,0.12849 -7.09548,0.21525 -3.5365,-3.91214 -7.07259,-7.82464 -10.60743,-11.73828 2.7938,-1.71236 5.91602,-2.83853 9.0586,-3.72852 1.60741,-0.43684 3.24261,-0.77178 4.89258,-1.00195 0.54333,-0.0797 1.40527,-0.17967 2.08225,-0.22903 0.87173,-0.0739 1.74614,-0.10948 2.62087,-0.11668 z m -211.42578,3.51368 c -13.24755,0.21122 -26.591,4.49454 -36.919227,12.91514 -7.924869,6.40254 -13.876463,15.35231 -16.179102,25.31928 -1.597892,6.63271 -1.19212,13.52087 -0.788915,20.26775 0.211456,3.54065 1.017588,7.04347 2.492923,10.27475 2.200918,5.20711 5.029584,10.1845 8.761538,14.45307 7.102017,8.29172 17.036963,13.95705 27.652253,16.34706 13.83067,3.21602 28.65971,0.72015 41.15505,-5.83719 9.60402,-5.05397 18.08726,-12.71453 22.9686,-22.5109 1.79712,-3.55744 3.39637,-7.29694 3.81668,-11.29858 0.76099,-6.98123 0.94793,-14.09644 -0.29048,-21.03579 -1.28306,-7.47382 -4.5315,-14.6073 -9.44155,-20.3972 -6.29656,-7.45611 -14.61681,-13.33673 -24.02861,-16.09471 -6.20843,-1.87063 -12.73458,-2.49598 -19.19916,-2.40268 z m 129.70898,1.14648 c 8.25546,0.005 16.49363,2.19526 23.69189,6.22646 9.18465,5.34909 15.75588,14.53466 18.93425,24.5793 1.04849,3.31358 1.72907,6.7439 2.01644,10.20791 0.0358,0.43582 0.0847,1.24568 0.10938,1.82422 0.27667,6.44366 -0.92765,12.97554 -3.76104,18.78775 -2.12483,4.40899 -4.71057,8.70456 -8.28584,12.09506 -4.08824,3.56946 -8.83453,6.31156 -13.70759,8.66036 -3.52993,1.70469 -7.26593,3.00516 -11.14725,3.61295 -5.62735,0.95784 -11.34608,1.54291 -17.0594,1.37456 -3.30698,-0.20901 -6.55736,-0.96991 -9.74591,-1.84123 -0.76488,-0.22351 -1.79576,-0.54489 -2.65235,-0.8457 -1.09036,-0.38293 -2.17481,-0.81284 -3.14738,-1.23454 -7.22255,-3.11109 -13.41297,-8.33813 -18.19065,-14.53827 -3.4941,-4.64695 -5.71832,-10.1464 -7.05719,-15.77437 -0.23823,-1.03546 -0.437,-2.3145 -0.55595,-3.21844 -0.33481,-2.69137 -0.37286,-5.41912 -0.11719,-8.11914 0.0343,-0.36945 0.11994,-1.13172 0.19191,-1.64698 0.23988,-1.80617 0.67347,-3.81234 1.13231,-5.4292 3.43403,-12.21668 12.44426,-22.5501 23.73337,-28.20598 7.92744,-3.99397 16.69708,-6.52294 25.61819,-6.51472 z m -207.529292,2.16602 c 6.20103,-0.11939 12.330517,1.49761 17.915048,4.12761 0.983763,0.16251 -0.154146,0.74826 -0.407303,1.15751 -4.000083,4.21481 -8.077941,8.39101 -11.55916,13.05563 -0.399883,0.54664 -0.762653,1.12791 -1.231788,1.61823 -1.636509,-0.54198 -3.203258,-1.31118 -4.912109,-1.63281 -3.153395,-0.66388 -6.545241,-1.11553 -9.66211,-0.0508 -2.559524,1.00541 -4.494521,3.0936 -6.23535,5.14701 -2.497373,3.0113 -3.957396,7.10171 -3.051098,11.00143 0.991369,4.50932 4.332568,8.04799 7.897539,10.76918 0.4699,0.36882 0.962618,0.70654 1.447503,1.05503 -0.933535,3.68664 -2.026312,7.22232 -3.261485,10.80985 -0.541613,1.5055 -1.081241,3.02854 -1.894765,4.41281 -4.912136,-1.89384 -9.409718,-4.9256 -12.956042,-8.82305 -4.664744,-5.08782 -7.328266,-11.9797 -7.116525,-18.89488 0.170424,-8.00786 3.880736,-15.61059 9.196745,-21.47469 5.221386,-5.89238 12.28841,-10.26333 20.079252,-11.68772 1.895813,-0.36134 3.822666,-0.54797 5.751648,-0.59036 z m 78.937502,3.71484 c 4.74335,0.0353 9.55393,0.17812 14.16653,1.38485 8.81778,2.36397 17.04222,7.33379 22.70662,14.55987 3.07054,3.82309 5.26899,8.26166 7.04399,12.80902 1.34352,3.7656 1.06954,7.83144 1.15199,11.76227 -0.0382,4.33175 0.14377,8.68108 -0.30215,12.99703 -0.36566,3.2611 -1.98997,6.17969 -3.45839,9.05337 -3.22556,5.58745 -7.74434,10.36197 -12.81233,14.31852 -2.96898,2.32146 -6.27049,4.21995 -9.82553,5.48697 -6.70971,2.57173 -13.7959,4.32766 -21.00719,4.4733 -10.85239,0.32764 -21.93144,-2.86293 -30.508608,-9.62452 -1.291027,-1.01155 -2.519371,-2.10151 -3.688137,-3.25193 -0.244303,-0.26284 -0.843274,-0.85253 -1.206343,-1.25692 -8.844461,-9.47494 -12.747026,-23.1628 -10.682329,-35.91105 0.06554,-0.3352 0.183521,-1.07897 0.292217,-1.56672 2.009315,-10.09587 8.023609,-19.22382 16.232357,-25.37832 0.965489,-0.73452 2.210923,-1.6037 3.356243,-2.31562 5.08711,-3.17237 10.75097,-5.4627 16.6424,-6.59583 3.92705,-0.67283 7.91883,-0.90309 11.89866,-0.94429 z m 99.28125,23.61523 c -4.57156,0.14244 -9.05296,2.38755 -11.74691,6.1107 -3.2038,4.33902 -4.17347,10.00989 -3.53734,15.28624 0.56629,4.79664 3.16106,9.40302 7.271,12.02607 4.23119,2.80838 9.80013,3.77425 14.60309,1.91879 5.1355,-1.89888 8.84765,-6.67644 10.08262,-11.93257 1.48688,-6.15406 0.34667,-13.15651 -3.88699,-18.00917 -3.14371,-3.67079 -7.97091,-5.6643 -12.78547,-5.40006 z M 103.3457,202.8125 c -4.448781,0.10353 -8.825909,2.09849 -11.719916,5.49703 -5.894328,6.79815 -6.00026,17.84251 -0.277922,24.77652 2.441452,2.98261 6.001142,5.05323 9.849608,5.49285 4.11709,0.52266 8.54517,-0.0658 12.06497,-2.37779 2.86721,-2.04751 4.7444,-5.19009 6.12472,-8.36961 1.34472,-3.15439 2.10575,-6.71304 1.23159,-10.10097 -0.98984,-4.0791 -3.04687,-7.94037 -6.0043,-10.93248 -2.91382,-2.92812 -7.22832,-4.09425 -11.26875,-3.98555 z m 134.29688,15.40625 c 1.09217,0.45081 1.46141,1.87409 1.33203,2.96289 -0.12233,0.78829 -0.75986,1.70635 -1.60547,1.73438 -1.59632,-0.75654 -1.48101,-3.07379 -0.47442,-4.26962 0.19812,-0.20498 0.44507,-0.4279 0.74786,-0.42765 z m -127.10742,4.30078 c 0.93514,0.22575 1.45071,1.17056 1.95507,1.91016 -0.51351,0.89321 -1.09178,2.01144 -2.14453,2.3125 -0.97505,-0.83578 -1.36909,-2.45419 -0.74414,-3.61719 0.19495,-0.32147 0.52554,-0.64915 0.9336,-0.60547 z m 88.37304,21.82422 c -5.20263,0.15844 -10.38889,1.34341 -15.13408,3.4853 -4.47669,1.98871 -8.10494,5.78341 -9.97609,10.29929 -0.51164,1.2285 -0.77341,2.5674 -0.82537,3.88143 -1.1026,0.64867 -2.4672,0.64374 -3.59039,1.27515 -3.76722,1.80633 -6.86193,4.76965 -9.48275,7.97564 -2.14201,2.64004 -3.76806,5.74419 -4.33694,9.1193 -1.20425,6.31948 0.61151,13.39856 5.44261,17.80497 1.98788,1.86853 4.55668,2.98181 7.20716,3.52323 0.82444,-0.0369 0.88787,0.51798 0.78765,1.20014 -0.0406,4.67059 -0.0557,9.39304 1.00134,13.97088 1.03093,4.62186 2.95889,9.32858 6.69397,12.4178 2.74567,2.3204 6.63174,3.1554 10.08399,2.14257 3.32163,-0.87817 6.04638,-3.09335 8.52434,-5.37529 0.46493,-0.50822 0.84232,0.65026 1.26839,0.88187 2.01425,2.05589 4.3856,3.86067 7.09562,4.88266 3.2187,1.23566 6.83202,0.5834 9.84112,-0.92181 2.79908,-1.36585 5.74992,-3.10974 7.03177,-6.10317 1.39932,-3.27287 1.24356,-6.92502 1.22155,-10.41095 -0.10798,-3.95788 -0.33549,-7.91159 -0.50232,-11.86737 3.23596,0.17264 6.66275,0.9207 9.75733,-0.41584 2.32889,-1.10046 4.43665,-2.66431 6.28456,-4.45169 3.82048,-3.73692 6.04929,-9.2855 5.09622,-14.6312 -0.65676,-4.00649 -3.23732,-7.34226 -5.88727,-10.27715 -3.44351,-3.73366 -7.51552,-6.90049 -12.05553,-9.19092 -0.88772,-0.59816 -2.15356,-1.07075 -2.42774,-2.21289 0.0472,-2.92641 -1.11716,-5.76478 -2.95002,-8.0154 -3.70537,-4.5561 -9.25467,-7.31326 -14.93144,-8.49338 -1.72148,-0.36016 -3.47875,-0.53514 -5.23768,-0.49317 z m 20.16407,24.14648 c 3.20627,1.68524 6.17731,3.79374 9.03947,6.0048 2.90431,2.37676 5.83839,5.07897 7.15426,8.69031 0.90595,2.40421 0.25899,5.13996 -1.2724,7.13906 -1.54867,2.02422 -3.46714,3.86733 -5.78884,4.97019 -2.77201,1.22096 -5.87012,0.35424 -8.6129,-0.50925 -4.47743,-1.49363 -8.74556,-3.61709 -13.37359,-4.65 -5.03611,-1.26626 -10.348,-1.13143 -15.38694,0.0453 -5.12428,1.12329 -9.99868,3.16066 -15.14383,4.20606 -0.43693,0.0931 -0.92589,0.18273 -1.4668,0.27344 -2.6711,0.433 -5.75146,0.63265 -7.98399,-1.18985 -3.24565,-2.53915 -4.53819,-6.97511 -3.81719,-10.94945 0.66914,-4.28977 3.2777,-8.04157 6.55113,-10.79441 1.41281,-1.15552 3.05347,-2.58109 5.0125,-2.32575 2.01466,0.40815 3.27925,2.20552 5.02751,3.14008 4.68967,2.90672 10.38541,3.40813 15.77788,3.30635 5.65311,-0.15845 11.47977,-0.60223 16.6614,-3.06954 2.3586,-1.14108 4.77366,-2.30359 6.74147,-4.06275 0.32159,-0.40981 0.37675,-0.55545 0.88086,-0.22461 z m -17,27.59961 c 3.31031,0.35089 6.36559,1.80755 9.40836,3.06374 0.95234,0.4379 2.17752,0.91556 2.28873,2.12381 0.6132,3.26669 0.87747,6.59105 1.03728,9.90816 0.0352,0.85672 0.0661,1.99958 0.0723,2.96718 -0.0335,2.62483 0.0289,5.30617 -0.63798,7.86302 -0.81436,1.18294 -2.16913,1.90191 -3.43253,2.53211 -1.21761,0.5102 -2.45463,1.03251 -3.7166,1.39355 -2.22324,-1.06501 -4.23026,-2.59041 -5.94727,-4.35352 -0.63272,-0.66358 -0.43716,-1.69538 -0.63867,-2.52539 -0.28995,-2.95652 -0.39427,-5.94572 -0.45543,-8.84603 -0.0428,-4.28616 -0.11582,-8.5953 0.39633,-12.85797 0.0429,-0.57794 0.2478,-1.32655 0.98488,-1.25694 0.21296,-0.0194 0.42708,-0.0206 0.64063,-0.0117 z m -9.54493,1.17774 c 0.002,4.35677 -0.23069,8.62981 -0.39643,12.99382 -0.20751,3.20391 -0.20437,6.47532 -1.08719,9.58508 -0.43834,1.77632 -2.00961,2.88096 -3.55263,3.6559 -1.47519,0.73941 -3.14832,1.76673 -4.85047,1.23395 -1.78868,-0.83569 -2.95362,-2.56621 -3.9799,-4.18524 -2.42504,-4.26726 -2.63174,-9.32746 -2.65525,-14.1175 -0.001,-1.51953 -0.002,-3.03906 -0.004,-4.55859 5.49757,-1.7416 11.06244,-3.53558 16.50196,-5.19336 0.008,0.19531 0.0156,0.39063 0.0234,0.58594 z" />
      </g>
    </g>
  </g>
</svg>
